<mxfile host="app.diagrams.net" modified="2021-04-08T07:33:31.931Z" agent="5.0 (Macintosh; Intel Mac OS X 11_2_3) AppleWebKit/537.36 (KHTML, like Gecko) Chrome/89.0.4389.114 Safari/537.36" etag="UN3J7BzKydIip7emMJCk" version="14.4.9" type="github">
  <diagram id="R2lEEEUBdFMjLlhIrx00" name="Page-1">
    <mxGraphModel dx="842" dy="801" grid="1" gridSize="10" guides="1" tooltips="1" connect="1" arrows="1" fold="1" page="1" pageScale="1" pageWidth="850" pageHeight="1100" math="0" shadow="0" extFonts="Permanent Marker^https://fonts.googleapis.com/css?family=Permanent+Marker">
      <root>
        <mxCell id="0" />
        <mxCell id="1" parent="0" />
        <mxCell id="cOOYBnyWmmE-Bh1Ltxbe-5" value="Quiz" style="shape=table;startSize=30;container=1;collapsible=1;childLayout=tableLayout;fixedRows=1;rowLines=0;fontStyle=1;align=center;resizeLast=1;" vertex="1" collapsed="1" parent="1">
          <mxGeometry x="375" y="760" width="80" height="30" as="geometry">
            <mxRectangle x="200" y="560" width="180" height="160" as="alternateBounds" />
          </mxGeometry>
        </mxCell>
        <mxCell id="cOOYBnyWmmE-Bh1Ltxbe-6" value="" style="shape=partialRectangle;collapsible=0;dropTarget=0;pointerEvents=0;fillColor=none;top=0;left=0;bottom=1;right=0;points=[[0,0.5],[1,0.5]];portConstraint=eastwest;" vertex="1" parent="cOOYBnyWmmE-Bh1Ltxbe-5">
          <mxGeometry y="30" width="180" height="30" as="geometry" />
        </mxCell>
        <mxCell id="cOOYBnyWmmE-Bh1Ltxbe-7" value="PK" style="shape=partialRectangle;connectable=0;fillColor=none;top=0;left=0;bottom=0;right=0;fontStyle=1;overflow=hidden;" vertex="1" parent="cOOYBnyWmmE-Bh1Ltxbe-6">
          <mxGeometry width="30" height="30" as="geometry" />
        </mxCell>
        <mxCell id="cOOYBnyWmmE-Bh1Ltxbe-8" value="UniqueID" style="shape=partialRectangle;connectable=0;fillColor=none;top=0;left=0;bottom=0;right=0;align=left;spacingLeft=6;fontStyle=5;overflow=hidden;" vertex="1" parent="cOOYBnyWmmE-Bh1Ltxbe-6">
          <mxGeometry x="30" width="150" height="30" as="geometry" />
        </mxCell>
        <mxCell id="cOOYBnyWmmE-Bh1Ltxbe-9" value="" style="shape=partialRectangle;collapsible=0;dropTarget=0;pointerEvents=0;fillColor=none;top=0;left=0;bottom=0;right=0;points=[[0,0.5],[1,0.5]];portConstraint=eastwest;" vertex="1" parent="cOOYBnyWmmE-Bh1Ltxbe-5">
          <mxGeometry y="60" width="180" height="30" as="geometry" />
        </mxCell>
        <mxCell id="cOOYBnyWmmE-Bh1Ltxbe-10" value="" style="shape=partialRectangle;connectable=0;fillColor=none;top=0;left=0;bottom=0;right=0;editable=1;overflow=hidden;" vertex="1" parent="cOOYBnyWmmE-Bh1Ltxbe-9">
          <mxGeometry width="30" height="30" as="geometry" />
        </mxCell>
        <mxCell id="cOOYBnyWmmE-Bh1Ltxbe-11" value="Row 1" style="shape=partialRectangle;connectable=0;fillColor=none;top=0;left=0;bottom=0;right=0;align=left;spacingLeft=6;overflow=hidden;" vertex="1" parent="cOOYBnyWmmE-Bh1Ltxbe-9">
          <mxGeometry x="30" width="150" height="30" as="geometry" />
        </mxCell>
        <mxCell id="cOOYBnyWmmE-Bh1Ltxbe-12" value="" style="shape=partialRectangle;collapsible=0;dropTarget=0;pointerEvents=0;fillColor=none;top=0;left=0;bottom=0;right=0;points=[[0,0.5],[1,0.5]];portConstraint=eastwest;" vertex="1" parent="cOOYBnyWmmE-Bh1Ltxbe-5">
          <mxGeometry y="90" width="180" height="30" as="geometry" />
        </mxCell>
        <mxCell id="cOOYBnyWmmE-Bh1Ltxbe-13" value="" style="shape=partialRectangle;connectable=0;fillColor=none;top=0;left=0;bottom=0;right=0;editable=1;overflow=hidden;" vertex="1" parent="cOOYBnyWmmE-Bh1Ltxbe-12">
          <mxGeometry width="30" height="30" as="geometry" />
        </mxCell>
        <mxCell id="cOOYBnyWmmE-Bh1Ltxbe-14" value="Row 2" style="shape=partialRectangle;connectable=0;fillColor=none;top=0;left=0;bottom=0;right=0;align=left;spacingLeft=6;overflow=hidden;" vertex="1" parent="cOOYBnyWmmE-Bh1Ltxbe-12">
          <mxGeometry x="30" width="150" height="30" as="geometry" />
        </mxCell>
        <mxCell id="cOOYBnyWmmE-Bh1Ltxbe-15" value="" style="shape=partialRectangle;collapsible=0;dropTarget=0;pointerEvents=0;fillColor=none;top=0;left=0;bottom=0;right=0;points=[[0,0.5],[1,0.5]];portConstraint=eastwest;" vertex="1" parent="cOOYBnyWmmE-Bh1Ltxbe-5">
          <mxGeometry y="120" width="180" height="30" as="geometry" />
        </mxCell>
        <mxCell id="cOOYBnyWmmE-Bh1Ltxbe-16" value="" style="shape=partialRectangle;connectable=0;fillColor=none;top=0;left=0;bottom=0;right=0;editable=1;overflow=hidden;" vertex="1" parent="cOOYBnyWmmE-Bh1Ltxbe-15">
          <mxGeometry width="30" height="30" as="geometry" />
        </mxCell>
        <mxCell id="cOOYBnyWmmE-Bh1Ltxbe-17" value="Row 3" style="shape=partialRectangle;connectable=0;fillColor=none;top=0;left=0;bottom=0;right=0;align=left;spacingLeft=6;overflow=hidden;" vertex="1" parent="cOOYBnyWmmE-Bh1Ltxbe-15">
          <mxGeometry x="30" width="150" height="30" as="geometry" />
        </mxCell>
        <mxCell id="cOOYBnyWmmE-Bh1Ltxbe-74" style="edgeStyle=orthogonalEdgeStyle;rounded=0;orthogonalLoop=1;jettySize=auto;html=1;exitX=0;exitY=0.5;exitDx=0;exitDy=0;entryX=1;entryY=0.5;entryDx=0;entryDy=0;startArrow=ERoneToMany;startFill=0;endArrow=ERone;endFill=0;" edge="1" parent="1" source="cOOYBnyWmmE-Bh1Ltxbe-31" target="cOOYBnyWmmE-Bh1Ltxbe-5">
          <mxGeometry relative="1" as="geometry" />
        </mxCell>
        <mxCell id="cOOYBnyWmmE-Bh1Ltxbe-31" value="QuizChoice" style="shape=table;startSize=30;container=1;collapsible=1;childLayout=tableLayout;fixedRows=1;rowLines=0;fontStyle=1;align=center;resizeLast=1;" vertex="1" collapsed="1" parent="1">
          <mxGeometry x="577.5" y="760" width="110" height="30" as="geometry">
            <mxRectangle x="460" y="560" width="180" height="160" as="alternateBounds" />
          </mxGeometry>
        </mxCell>
        <mxCell id="cOOYBnyWmmE-Bh1Ltxbe-32" value="" style="shape=partialRectangle;collapsible=0;dropTarget=0;pointerEvents=0;fillColor=none;top=0;left=0;bottom=1;right=0;points=[[0,0.5],[1,0.5]];portConstraint=eastwest;" vertex="1" parent="cOOYBnyWmmE-Bh1Ltxbe-31">
          <mxGeometry y="30" width="180" height="30" as="geometry" />
        </mxCell>
        <mxCell id="cOOYBnyWmmE-Bh1Ltxbe-33" value="PK" style="shape=partialRectangle;connectable=0;fillColor=none;top=0;left=0;bottom=0;right=0;fontStyle=1;overflow=hidden;" vertex="1" parent="cOOYBnyWmmE-Bh1Ltxbe-32">
          <mxGeometry width="30" height="30" as="geometry" />
        </mxCell>
        <mxCell id="cOOYBnyWmmE-Bh1Ltxbe-34" value="UniqueID" style="shape=partialRectangle;connectable=0;fillColor=none;top=0;left=0;bottom=0;right=0;align=left;spacingLeft=6;fontStyle=5;overflow=hidden;" vertex="1" parent="cOOYBnyWmmE-Bh1Ltxbe-32">
          <mxGeometry x="30" width="150" height="30" as="geometry" />
        </mxCell>
        <mxCell id="cOOYBnyWmmE-Bh1Ltxbe-35" value="" style="shape=partialRectangle;collapsible=0;dropTarget=0;pointerEvents=0;fillColor=none;top=0;left=0;bottom=0;right=0;points=[[0,0.5],[1,0.5]];portConstraint=eastwest;" vertex="1" parent="cOOYBnyWmmE-Bh1Ltxbe-31">
          <mxGeometry y="60" width="180" height="30" as="geometry" />
        </mxCell>
        <mxCell id="cOOYBnyWmmE-Bh1Ltxbe-36" value="" style="shape=partialRectangle;connectable=0;fillColor=none;top=0;left=0;bottom=0;right=0;editable=1;overflow=hidden;" vertex="1" parent="cOOYBnyWmmE-Bh1Ltxbe-35">
          <mxGeometry width="30" height="30" as="geometry" />
        </mxCell>
        <mxCell id="cOOYBnyWmmE-Bh1Ltxbe-37" value="Row 1" style="shape=partialRectangle;connectable=0;fillColor=none;top=0;left=0;bottom=0;right=0;align=left;spacingLeft=6;overflow=hidden;" vertex="1" parent="cOOYBnyWmmE-Bh1Ltxbe-35">
          <mxGeometry x="30" width="150" height="30" as="geometry" />
        </mxCell>
        <mxCell id="cOOYBnyWmmE-Bh1Ltxbe-38" value="" style="shape=partialRectangle;collapsible=0;dropTarget=0;pointerEvents=0;fillColor=none;top=0;left=0;bottom=0;right=0;points=[[0,0.5],[1,0.5]];portConstraint=eastwest;" vertex="1" parent="cOOYBnyWmmE-Bh1Ltxbe-31">
          <mxGeometry y="90" width="180" height="30" as="geometry" />
        </mxCell>
        <mxCell id="cOOYBnyWmmE-Bh1Ltxbe-39" value="" style="shape=partialRectangle;connectable=0;fillColor=none;top=0;left=0;bottom=0;right=0;editable=1;overflow=hidden;" vertex="1" parent="cOOYBnyWmmE-Bh1Ltxbe-38">
          <mxGeometry width="30" height="30" as="geometry" />
        </mxCell>
        <mxCell id="cOOYBnyWmmE-Bh1Ltxbe-40" value="Row 2" style="shape=partialRectangle;connectable=0;fillColor=none;top=0;left=0;bottom=0;right=0;align=left;spacingLeft=6;overflow=hidden;" vertex="1" parent="cOOYBnyWmmE-Bh1Ltxbe-38">
          <mxGeometry x="30" width="150" height="30" as="geometry" />
        </mxCell>
        <mxCell id="cOOYBnyWmmE-Bh1Ltxbe-41" value="" style="shape=partialRectangle;collapsible=0;dropTarget=0;pointerEvents=0;fillColor=none;top=0;left=0;bottom=0;right=0;points=[[0,0.5],[1,0.5]];portConstraint=eastwest;" vertex="1" parent="cOOYBnyWmmE-Bh1Ltxbe-31">
          <mxGeometry y="120" width="180" height="30" as="geometry" />
        </mxCell>
        <mxCell id="cOOYBnyWmmE-Bh1Ltxbe-42" value="" style="shape=partialRectangle;connectable=0;fillColor=none;top=0;left=0;bottom=0;right=0;editable=1;overflow=hidden;" vertex="1" parent="cOOYBnyWmmE-Bh1Ltxbe-41">
          <mxGeometry width="30" height="30" as="geometry" />
        </mxCell>
        <mxCell id="cOOYBnyWmmE-Bh1Ltxbe-43" value="Row 3" style="shape=partialRectangle;connectable=0;fillColor=none;top=0;left=0;bottom=0;right=0;align=left;spacingLeft=6;overflow=hidden;" vertex="1" parent="cOOYBnyWmmE-Bh1Ltxbe-41">
          <mxGeometry x="30" width="150" height="30" as="geometry" />
        </mxCell>
        <mxCell id="cOOYBnyWmmE-Bh1Ltxbe-71" style="edgeStyle=orthogonalEdgeStyle;rounded=0;orthogonalLoop=1;jettySize=auto;html=1;exitX=1;exitY=0.5;exitDx=0;exitDy=0;entryX=0;entryY=0.5;entryDx=0;entryDy=0;startArrow=ERone;startFill=0;endArrow=ERoneToMany;endFill=0;" edge="1" parent="1" source="cOOYBnyWmmE-Bh1Ltxbe-44" target="cOOYBnyWmmE-Bh1Ltxbe-5">
          <mxGeometry relative="1" as="geometry" />
        </mxCell>
        <mxCell id="cOOYBnyWmmE-Bh1Ltxbe-130" style="edgeStyle=orthogonalEdgeStyle;rounded=0;orthogonalLoop=1;jettySize=auto;html=1;exitX=0.5;exitY=0;exitDx=0;exitDy=0;entryX=0.5;entryY=1;entryDx=0;entryDy=0;startArrow=ERone;startFill=0;endArrow=ERone;endFill=0;" edge="1" parent="1" source="cOOYBnyWmmE-Bh1Ltxbe-44" target="cOOYBnyWmmE-Bh1Ltxbe-117">
          <mxGeometry relative="1" as="geometry" />
        </mxCell>
        <mxCell id="cOOYBnyWmmE-Bh1Ltxbe-44" value="QuizSet" style="shape=table;startSize=30;container=1;collapsible=1;childLayout=tableLayout;fixedRows=1;rowLines=0;fontStyle=1;align=center;resizeLast=1;" vertex="1" collapsed="1" parent="1">
          <mxGeometry x="130" y="760" width="115" height="30" as="geometry">
            <mxRectangle x="50" y="640" width="180" height="160" as="alternateBounds" />
          </mxGeometry>
        </mxCell>
        <mxCell id="cOOYBnyWmmE-Bh1Ltxbe-45" value="" style="shape=partialRectangle;collapsible=0;dropTarget=0;pointerEvents=0;fillColor=none;top=0;left=0;bottom=1;right=0;points=[[0,0.5],[1,0.5]];portConstraint=eastwest;" vertex="1" parent="cOOYBnyWmmE-Bh1Ltxbe-44">
          <mxGeometry y="30" width="180" height="30" as="geometry" />
        </mxCell>
        <mxCell id="cOOYBnyWmmE-Bh1Ltxbe-46" value="PK" style="shape=partialRectangle;connectable=0;fillColor=none;top=0;left=0;bottom=0;right=0;fontStyle=1;overflow=hidden;" vertex="1" parent="cOOYBnyWmmE-Bh1Ltxbe-45">
          <mxGeometry width="30" height="30" as="geometry" />
        </mxCell>
        <mxCell id="cOOYBnyWmmE-Bh1Ltxbe-47" value="UniqueID" style="shape=partialRectangle;connectable=0;fillColor=none;top=0;left=0;bottom=0;right=0;align=left;spacingLeft=6;fontStyle=5;overflow=hidden;" vertex="1" parent="cOOYBnyWmmE-Bh1Ltxbe-45">
          <mxGeometry x="30" width="150" height="30" as="geometry" />
        </mxCell>
        <mxCell id="cOOYBnyWmmE-Bh1Ltxbe-48" value="" style="shape=partialRectangle;collapsible=0;dropTarget=0;pointerEvents=0;fillColor=none;top=0;left=0;bottom=0;right=0;points=[[0,0.5],[1,0.5]];portConstraint=eastwest;" vertex="1" parent="cOOYBnyWmmE-Bh1Ltxbe-44">
          <mxGeometry y="60" width="180" height="30" as="geometry" />
        </mxCell>
        <mxCell id="cOOYBnyWmmE-Bh1Ltxbe-49" value="" style="shape=partialRectangle;connectable=0;fillColor=none;top=0;left=0;bottom=0;right=0;editable=1;overflow=hidden;" vertex="1" parent="cOOYBnyWmmE-Bh1Ltxbe-48">
          <mxGeometry width="30" height="30" as="geometry" />
        </mxCell>
        <mxCell id="cOOYBnyWmmE-Bh1Ltxbe-50" value="Row 1" style="shape=partialRectangle;connectable=0;fillColor=none;top=0;left=0;bottom=0;right=0;align=left;spacingLeft=6;overflow=hidden;" vertex="1" parent="cOOYBnyWmmE-Bh1Ltxbe-48">
          <mxGeometry x="30" width="150" height="30" as="geometry" />
        </mxCell>
        <mxCell id="cOOYBnyWmmE-Bh1Ltxbe-51" value="" style="shape=partialRectangle;collapsible=0;dropTarget=0;pointerEvents=0;fillColor=none;top=0;left=0;bottom=0;right=0;points=[[0,0.5],[1,0.5]];portConstraint=eastwest;" vertex="1" parent="cOOYBnyWmmE-Bh1Ltxbe-44">
          <mxGeometry y="90" width="180" height="30" as="geometry" />
        </mxCell>
        <mxCell id="cOOYBnyWmmE-Bh1Ltxbe-52" value="" style="shape=partialRectangle;connectable=0;fillColor=none;top=0;left=0;bottom=0;right=0;editable=1;overflow=hidden;" vertex="1" parent="cOOYBnyWmmE-Bh1Ltxbe-51">
          <mxGeometry width="30" height="30" as="geometry" />
        </mxCell>
        <mxCell id="cOOYBnyWmmE-Bh1Ltxbe-53" value="Row 2" style="shape=partialRectangle;connectable=0;fillColor=none;top=0;left=0;bottom=0;right=0;align=left;spacingLeft=6;overflow=hidden;" vertex="1" parent="cOOYBnyWmmE-Bh1Ltxbe-51">
          <mxGeometry x="30" width="150" height="30" as="geometry" />
        </mxCell>
        <mxCell id="cOOYBnyWmmE-Bh1Ltxbe-54" value="" style="shape=partialRectangle;collapsible=0;dropTarget=0;pointerEvents=0;fillColor=none;top=0;left=0;bottom=0;right=0;points=[[0,0.5],[1,0.5]];portConstraint=eastwest;" vertex="1" parent="cOOYBnyWmmE-Bh1Ltxbe-44">
          <mxGeometry y="120" width="180" height="30" as="geometry" />
        </mxCell>
        <mxCell id="cOOYBnyWmmE-Bh1Ltxbe-55" value="" style="shape=partialRectangle;connectable=0;fillColor=none;top=0;left=0;bottom=0;right=0;editable=1;overflow=hidden;" vertex="1" parent="cOOYBnyWmmE-Bh1Ltxbe-54">
          <mxGeometry width="30" height="30" as="geometry" />
        </mxCell>
        <mxCell id="cOOYBnyWmmE-Bh1Ltxbe-56" value="Row 3" style="shape=partialRectangle;connectable=0;fillColor=none;top=0;left=0;bottom=0;right=0;align=left;spacingLeft=6;overflow=hidden;" vertex="1" parent="cOOYBnyWmmE-Bh1Ltxbe-54">
          <mxGeometry x="30" width="150" height="30" as="geometry" />
        </mxCell>
        <mxCell id="cOOYBnyWmmE-Bh1Ltxbe-76" value="QuizAnswer" style="shape=table;startSize=30;container=1;collapsible=1;childLayout=tableLayout;fixedRows=1;rowLines=0;fontStyle=1;align=center;resizeLast=1;" vertex="1" collapsed="1" parent="1">
          <mxGeometry x="582.5" y="480" width="100" height="30" as="geometry">
            <mxRectangle x="640" y="400" width="180" height="130" as="alternateBounds" />
          </mxGeometry>
        </mxCell>
        <mxCell id="cOOYBnyWmmE-Bh1Ltxbe-77" value="" style="shape=partialRectangle;collapsible=0;dropTarget=0;pointerEvents=0;fillColor=none;top=0;left=0;bottom=1;right=0;points=[[0,0.5],[1,0.5]];portConstraint=eastwest;" vertex="1" parent="cOOYBnyWmmE-Bh1Ltxbe-76">
          <mxGeometry y="30" width="180" height="30" as="geometry" />
        </mxCell>
        <mxCell id="cOOYBnyWmmE-Bh1Ltxbe-78" value="PK" style="shape=partialRectangle;connectable=0;fillColor=none;top=0;left=0;bottom=0;right=0;fontStyle=1;overflow=hidden;" vertex="1" parent="cOOYBnyWmmE-Bh1Ltxbe-77">
          <mxGeometry width="30" height="30" as="geometry" />
        </mxCell>
        <mxCell id="cOOYBnyWmmE-Bh1Ltxbe-79" value="UniqueID" style="shape=partialRectangle;connectable=0;fillColor=none;top=0;left=0;bottom=0;right=0;align=left;spacingLeft=6;fontStyle=5;overflow=hidden;" vertex="1" parent="cOOYBnyWmmE-Bh1Ltxbe-77">
          <mxGeometry x="30" width="150" height="30" as="geometry" />
        </mxCell>
        <mxCell id="cOOYBnyWmmE-Bh1Ltxbe-80" value="" style="shape=partialRectangle;collapsible=0;dropTarget=0;pointerEvents=0;fillColor=none;top=0;left=0;bottom=0;right=0;points=[[0,0.5],[1,0.5]];portConstraint=eastwest;" vertex="1" parent="cOOYBnyWmmE-Bh1Ltxbe-76">
          <mxGeometry y="60" width="180" height="30" as="geometry" />
        </mxCell>
        <mxCell id="cOOYBnyWmmE-Bh1Ltxbe-81" value="" style="shape=partialRectangle;connectable=0;fillColor=none;top=0;left=0;bottom=0;right=0;editable=1;overflow=hidden;" vertex="1" parent="cOOYBnyWmmE-Bh1Ltxbe-80">
          <mxGeometry width="30" height="30" as="geometry" />
        </mxCell>
        <mxCell id="cOOYBnyWmmE-Bh1Ltxbe-82" value="quiz_choice_id" style="shape=partialRectangle;connectable=0;fillColor=none;top=0;left=0;bottom=0;right=0;align=left;spacingLeft=6;overflow=hidden;" vertex="1" parent="cOOYBnyWmmE-Bh1Ltxbe-80">
          <mxGeometry x="30" width="150" height="30" as="geometry" />
        </mxCell>
        <mxCell id="cOOYBnyWmmE-Bh1Ltxbe-83" value="" style="shape=partialRectangle;collapsible=0;dropTarget=0;pointerEvents=0;fillColor=none;top=0;left=0;bottom=0;right=0;points=[[0,0.5],[1,0.5]];portConstraint=eastwest;" vertex="1" parent="cOOYBnyWmmE-Bh1Ltxbe-76">
          <mxGeometry y="90" width="180" height="30" as="geometry" />
        </mxCell>
        <mxCell id="cOOYBnyWmmE-Bh1Ltxbe-84" value="" style="shape=partialRectangle;connectable=0;fillColor=none;top=0;left=0;bottom=0;right=0;editable=1;overflow=hidden;" vertex="1" parent="cOOYBnyWmmE-Bh1Ltxbe-83">
          <mxGeometry width="30" height="30" as="geometry" />
        </mxCell>
        <mxCell id="cOOYBnyWmmE-Bh1Ltxbe-85" value="answerSet_id" style="shape=partialRectangle;connectable=0;fillColor=none;top=0;left=0;bottom=0;right=0;align=left;spacingLeft=6;overflow=hidden;" vertex="1" parent="cOOYBnyWmmE-Bh1Ltxbe-83">
          <mxGeometry x="30" width="150" height="30" as="geometry" />
        </mxCell>
        <mxCell id="cOOYBnyWmmE-Bh1Ltxbe-89" value="QuizAnswerSet" style="shape=table;startSize=30;container=1;collapsible=1;childLayout=tableLayout;fixedRows=1;rowLines=0;fontStyle=1;align=center;resizeLast=1;" vertex="1" collapsed="1" parent="1">
          <mxGeometry x="352.5" y="480" width="135" height="30" as="geometry">
            <mxRectangle x="420" y="420" width="180" height="160" as="alternateBounds" />
          </mxGeometry>
        </mxCell>
        <mxCell id="cOOYBnyWmmE-Bh1Ltxbe-90" value="" style="shape=partialRectangle;collapsible=0;dropTarget=0;pointerEvents=0;fillColor=none;top=0;left=0;bottom=1;right=0;points=[[0,0.5],[1,0.5]];portConstraint=eastwest;" vertex="1" parent="cOOYBnyWmmE-Bh1Ltxbe-89">
          <mxGeometry y="30" width="180" height="30" as="geometry" />
        </mxCell>
        <mxCell id="cOOYBnyWmmE-Bh1Ltxbe-91" value="PK" style="shape=partialRectangle;connectable=0;fillColor=none;top=0;left=0;bottom=0;right=0;fontStyle=1;overflow=hidden;" vertex="1" parent="cOOYBnyWmmE-Bh1Ltxbe-90">
          <mxGeometry width="30" height="30" as="geometry" />
        </mxCell>
        <mxCell id="cOOYBnyWmmE-Bh1Ltxbe-92" value="UniqueID" style="shape=partialRectangle;connectable=0;fillColor=none;top=0;left=0;bottom=0;right=0;align=left;spacingLeft=6;fontStyle=5;overflow=hidden;" vertex="1" parent="cOOYBnyWmmE-Bh1Ltxbe-90">
          <mxGeometry x="30" width="150" height="30" as="geometry" />
        </mxCell>
        <mxCell id="cOOYBnyWmmE-Bh1Ltxbe-93" value="" style="shape=partialRectangle;collapsible=0;dropTarget=0;pointerEvents=0;fillColor=none;top=0;left=0;bottom=0;right=0;points=[[0,0.5],[1,0.5]];portConstraint=eastwest;" vertex="1" parent="cOOYBnyWmmE-Bh1Ltxbe-89">
          <mxGeometry y="60" width="180" height="30" as="geometry" />
        </mxCell>
        <mxCell id="cOOYBnyWmmE-Bh1Ltxbe-94" value="" style="shape=partialRectangle;connectable=0;fillColor=none;top=0;left=0;bottom=0;right=0;editable=1;overflow=hidden;" vertex="1" parent="cOOYBnyWmmE-Bh1Ltxbe-93">
          <mxGeometry width="30" height="30" as="geometry" />
        </mxCell>
        <mxCell id="cOOYBnyWmmE-Bh1Ltxbe-95" value="is_pre bool" style="shape=partialRectangle;connectable=0;fillColor=none;top=0;left=0;bottom=0;right=0;align=left;spacingLeft=6;overflow=hidden;" vertex="1" parent="cOOYBnyWmmE-Bh1Ltxbe-93">
          <mxGeometry x="30" width="150" height="30" as="geometry" />
        </mxCell>
        <mxCell id="cOOYBnyWmmE-Bh1Ltxbe-96" value="" style="shape=partialRectangle;collapsible=0;dropTarget=0;pointerEvents=0;fillColor=none;top=0;left=0;bottom=0;right=0;points=[[0,0.5],[1,0.5]];portConstraint=eastwest;" vertex="1" parent="cOOYBnyWmmE-Bh1Ltxbe-89">
          <mxGeometry y="90" width="180" height="30" as="geometry" />
        </mxCell>
        <mxCell id="cOOYBnyWmmE-Bh1Ltxbe-97" value="" style="shape=partialRectangle;connectable=0;fillColor=none;top=0;left=0;bottom=0;right=0;editable=1;overflow=hidden;" vertex="1" parent="cOOYBnyWmmE-Bh1Ltxbe-96">
          <mxGeometry width="30" height="30" as="geometry" />
        </mxCell>
        <mxCell id="cOOYBnyWmmE-Bh1Ltxbe-98" value="user" style="shape=partialRectangle;connectable=0;fillColor=none;top=0;left=0;bottom=0;right=0;align=left;spacingLeft=6;overflow=hidden;" vertex="1" parent="cOOYBnyWmmE-Bh1Ltxbe-96">
          <mxGeometry x="30" width="150" height="30" as="geometry" />
        </mxCell>
        <mxCell id="cOOYBnyWmmE-Bh1Ltxbe-99" value="" style="shape=partialRectangle;collapsible=0;dropTarget=0;pointerEvents=0;fillColor=none;top=0;left=0;bottom=0;right=0;points=[[0,0.5],[1,0.5]];portConstraint=eastwest;" vertex="1" parent="cOOYBnyWmmE-Bh1Ltxbe-89">
          <mxGeometry y="120" width="180" height="30" as="geometry" />
        </mxCell>
        <mxCell id="cOOYBnyWmmE-Bh1Ltxbe-100" value="" style="shape=partialRectangle;connectable=0;fillColor=none;top=0;left=0;bottom=0;right=0;editable=1;overflow=hidden;" vertex="1" parent="cOOYBnyWmmE-Bh1Ltxbe-99">
          <mxGeometry width="30" height="30" as="geometry" />
        </mxCell>
        <mxCell id="cOOYBnyWmmE-Bh1Ltxbe-101" value="lesson_id" style="shape=partialRectangle;connectable=0;fillColor=none;top=0;left=0;bottom=0;right=0;align=left;spacingLeft=6;overflow=hidden;" vertex="1" parent="cOOYBnyWmmE-Bh1Ltxbe-99">
          <mxGeometry x="30" width="150" height="30" as="geometry" />
        </mxCell>
        <mxCell id="cOOYBnyWmmE-Bh1Ltxbe-144" value="" style="edgeStyle=orthogonalEdgeStyle;rounded=0;orthogonalLoop=1;jettySize=auto;html=1;startArrow=ERone;startFill=0;endArrow=ERoneToMany;endFill=0;exitX=0.5;exitY=0;exitDx=0;exitDy=0;" edge="1" parent="1" source="cOOYBnyWmmE-Bh1Ltxbe-117" target="cOOYBnyWmmE-Bh1Ltxbe-135">
          <mxGeometry relative="1" as="geometry">
            <mxPoint x="180" y="485" as="targetPoint" />
          </mxGeometry>
        </mxCell>
        <mxCell id="cOOYBnyWmmE-Bh1Ltxbe-117" value="BaseLesson" style="shape=table;startSize=30;container=1;collapsible=1;childLayout=tableLayout;fixedRows=1;rowLines=0;fontStyle=1;align=center;resizeLast=1;" vertex="1" collapsed="1" parent="1">
          <mxGeometry x="132.5" y="620" width="110" height="30" as="geometry">
            <mxRectangle x="132.5" y="620" width="180" height="160" as="alternateBounds" />
          </mxGeometry>
        </mxCell>
        <mxCell id="cOOYBnyWmmE-Bh1Ltxbe-118" value="" style="shape=partialRectangle;collapsible=0;dropTarget=0;pointerEvents=0;fillColor=none;top=0;left=0;bottom=1;right=0;points=[[0,0.5],[1,0.5]];portConstraint=eastwest;" vertex="1" parent="cOOYBnyWmmE-Bh1Ltxbe-117">
          <mxGeometry y="30" width="180" height="30" as="geometry" />
        </mxCell>
        <mxCell id="cOOYBnyWmmE-Bh1Ltxbe-119" value="PK" style="shape=partialRectangle;connectable=0;fillColor=none;top=0;left=0;bottom=0;right=0;fontStyle=1;overflow=hidden;" vertex="1" parent="cOOYBnyWmmE-Bh1Ltxbe-118">
          <mxGeometry width="30" height="30" as="geometry" />
        </mxCell>
        <mxCell id="cOOYBnyWmmE-Bh1Ltxbe-120" value="UniqueID" style="shape=partialRectangle;connectable=0;fillColor=none;top=0;left=0;bottom=0;right=0;align=left;spacingLeft=6;fontStyle=5;overflow=hidden;" vertex="1" parent="cOOYBnyWmmE-Bh1Ltxbe-118">
          <mxGeometry x="30" width="150" height="30" as="geometry" />
        </mxCell>
        <mxCell id="cOOYBnyWmmE-Bh1Ltxbe-121" value="" style="shape=partialRectangle;collapsible=0;dropTarget=0;pointerEvents=0;fillColor=none;top=0;left=0;bottom=0;right=0;points=[[0,0.5],[1,0.5]];portConstraint=eastwest;" vertex="1" parent="cOOYBnyWmmE-Bh1Ltxbe-117">
          <mxGeometry y="60" width="180" height="30" as="geometry" />
        </mxCell>
        <mxCell id="cOOYBnyWmmE-Bh1Ltxbe-122" value="" style="shape=partialRectangle;connectable=0;fillColor=none;top=0;left=0;bottom=0;right=0;editable=1;overflow=hidden;" vertex="1" parent="cOOYBnyWmmE-Bh1Ltxbe-121">
          <mxGeometry width="30" height="30" as="geometry" />
        </mxCell>
        <mxCell id="cOOYBnyWmmE-Bh1Ltxbe-123" value="Row 1" style="shape=partialRectangle;connectable=0;fillColor=none;top=0;left=0;bottom=0;right=0;align=left;spacingLeft=6;overflow=hidden;" vertex="1" parent="cOOYBnyWmmE-Bh1Ltxbe-121">
          <mxGeometry x="30" width="150" height="30" as="geometry" />
        </mxCell>
        <mxCell id="cOOYBnyWmmE-Bh1Ltxbe-124" value="" style="shape=partialRectangle;collapsible=0;dropTarget=0;pointerEvents=0;fillColor=none;top=0;left=0;bottom=0;right=0;points=[[0,0.5],[1,0.5]];portConstraint=eastwest;" vertex="1" parent="cOOYBnyWmmE-Bh1Ltxbe-117">
          <mxGeometry y="90" width="180" height="30" as="geometry" />
        </mxCell>
        <mxCell id="cOOYBnyWmmE-Bh1Ltxbe-125" value="" style="shape=partialRectangle;connectable=0;fillColor=none;top=0;left=0;bottom=0;right=0;editable=1;overflow=hidden;" vertex="1" parent="cOOYBnyWmmE-Bh1Ltxbe-124">
          <mxGeometry width="30" height="30" as="geometry" />
        </mxCell>
        <mxCell id="cOOYBnyWmmE-Bh1Ltxbe-126" value="Row 2" style="shape=partialRectangle;connectable=0;fillColor=none;top=0;left=0;bottom=0;right=0;align=left;spacingLeft=6;overflow=hidden;" vertex="1" parent="cOOYBnyWmmE-Bh1Ltxbe-124">
          <mxGeometry x="30" width="150" height="30" as="geometry" />
        </mxCell>
        <mxCell id="cOOYBnyWmmE-Bh1Ltxbe-127" value="" style="shape=partialRectangle;collapsible=0;dropTarget=0;pointerEvents=0;fillColor=none;top=0;left=0;bottom=0;right=0;points=[[0,0.5],[1,0.5]];portConstraint=eastwest;" vertex="1" parent="cOOYBnyWmmE-Bh1Ltxbe-117">
          <mxGeometry y="120" width="180" height="30" as="geometry" />
        </mxCell>
        <mxCell id="cOOYBnyWmmE-Bh1Ltxbe-128" value="" style="shape=partialRectangle;connectable=0;fillColor=none;top=0;left=0;bottom=0;right=0;editable=1;overflow=hidden;" vertex="1" parent="cOOYBnyWmmE-Bh1Ltxbe-127">
          <mxGeometry width="30" height="30" as="geometry" />
        </mxCell>
        <mxCell id="cOOYBnyWmmE-Bh1Ltxbe-129" value="Row 3" style="shape=partialRectangle;connectable=0;fillColor=none;top=0;left=0;bottom=0;right=0;align=left;spacingLeft=6;overflow=hidden;" vertex="1" parent="cOOYBnyWmmE-Bh1Ltxbe-127">
          <mxGeometry x="30" width="150" height="30" as="geometry" />
        </mxCell>
        <mxCell id="cOOYBnyWmmE-Bh1Ltxbe-131" value="Lesson" style="shape=table;startSize=30;container=1;collapsible=1;childLayout=tableLayout;fixedRows=1;rowLines=0;fontStyle=1;align=center;resizeLast=1;" vertex="1" collapsed="1" parent="1">
          <mxGeometry x="132.5" y="480" width="110" height="30" as="geometry">
            <mxRectangle x="200" y="420" width="180" height="160" as="alternateBounds" />
          </mxGeometry>
        </mxCell>
        <mxCell id="cOOYBnyWmmE-Bh1Ltxbe-132" value="" style="shape=partialRectangle;collapsible=0;dropTarget=0;pointerEvents=0;fillColor=none;top=0;left=0;bottom=1;right=0;points=[[0,0.5],[1,0.5]];portConstraint=eastwest;" vertex="1" parent="cOOYBnyWmmE-Bh1Ltxbe-131">
          <mxGeometry y="30" width="180" height="30" as="geometry" />
        </mxCell>
        <mxCell id="cOOYBnyWmmE-Bh1Ltxbe-133" value="PK" style="shape=partialRectangle;connectable=0;fillColor=none;top=0;left=0;bottom=0;right=0;fontStyle=1;overflow=hidden;" vertex="1" parent="cOOYBnyWmmE-Bh1Ltxbe-132">
          <mxGeometry width="30" height="30" as="geometry" />
        </mxCell>
        <mxCell id="cOOYBnyWmmE-Bh1Ltxbe-134" value="UniqueID" style="shape=partialRectangle;connectable=0;fillColor=none;top=0;left=0;bottom=0;right=0;align=left;spacingLeft=6;fontStyle=5;overflow=hidden;" vertex="1" parent="cOOYBnyWmmE-Bh1Ltxbe-132">
          <mxGeometry x="30" width="150" height="30" as="geometry" />
        </mxCell>
        <mxCell id="cOOYBnyWmmE-Bh1Ltxbe-135" value="" style="shape=partialRectangle;collapsible=0;dropTarget=0;pointerEvents=0;fillColor=none;top=0;left=0;bottom=0;right=0;points=[[0,0.5],[1,0.5]];portConstraint=eastwest;" vertex="1" parent="cOOYBnyWmmE-Bh1Ltxbe-131">
          <mxGeometry y="60" width="180" height="30" as="geometry" />
        </mxCell>
        <mxCell id="cOOYBnyWmmE-Bh1Ltxbe-136" value="" style="shape=partialRectangle;connectable=0;fillColor=none;top=0;left=0;bottom=0;right=0;editable=1;overflow=hidden;" vertex="1" parent="cOOYBnyWmmE-Bh1Ltxbe-135">
          <mxGeometry width="30" height="30" as="geometry" />
        </mxCell>
        <mxCell id="cOOYBnyWmmE-Bh1Ltxbe-137" value="baseLesson_id" style="shape=partialRectangle;connectable=0;fillColor=none;top=0;left=0;bottom=0;right=0;align=left;spacingLeft=6;overflow=hidden;" vertex="1" parent="cOOYBnyWmmE-Bh1Ltxbe-135">
          <mxGeometry x="30" width="150" height="30" as="geometry" />
        </mxCell>
        <mxCell id="cOOYBnyWmmE-Bh1Ltxbe-138" value="" style="shape=partialRectangle;collapsible=0;dropTarget=0;pointerEvents=0;fillColor=none;top=0;left=0;bottom=0;right=0;points=[[0,0.5],[1,0.5]];portConstraint=eastwest;" vertex="1" parent="cOOYBnyWmmE-Bh1Ltxbe-131">
          <mxGeometry y="90" width="180" height="30" as="geometry" />
        </mxCell>
        <mxCell id="cOOYBnyWmmE-Bh1Ltxbe-139" value="" style="shape=partialRectangle;connectable=0;fillColor=none;top=0;left=0;bottom=0;right=0;editable=1;overflow=hidden;" vertex="1" parent="cOOYBnyWmmE-Bh1Ltxbe-138">
          <mxGeometry width="30" height="30" as="geometry" />
        </mxCell>
        <mxCell id="cOOYBnyWmmE-Bh1Ltxbe-140" value="Row 2" style="shape=partialRectangle;connectable=0;fillColor=none;top=0;left=0;bottom=0;right=0;align=left;spacingLeft=6;overflow=hidden;" vertex="1" parent="cOOYBnyWmmE-Bh1Ltxbe-138">
          <mxGeometry x="30" width="150" height="30" as="geometry" />
        </mxCell>
        <mxCell id="cOOYBnyWmmE-Bh1Ltxbe-141" value="" style="shape=partialRectangle;collapsible=0;dropTarget=0;pointerEvents=0;fillColor=none;top=0;left=0;bottom=0;right=0;points=[[0,0.5],[1,0.5]];portConstraint=eastwest;" vertex="1" parent="cOOYBnyWmmE-Bh1Ltxbe-131">
          <mxGeometry y="120" width="180" height="30" as="geometry" />
        </mxCell>
        <mxCell id="cOOYBnyWmmE-Bh1Ltxbe-142" value="" style="shape=partialRectangle;connectable=0;fillColor=none;top=0;left=0;bottom=0;right=0;editable=1;overflow=hidden;" vertex="1" parent="cOOYBnyWmmE-Bh1Ltxbe-141">
          <mxGeometry width="30" height="30" as="geometry" />
        </mxCell>
        <mxCell id="cOOYBnyWmmE-Bh1Ltxbe-143" value="Row 3" style="shape=partialRectangle;connectable=0;fillColor=none;top=0;left=0;bottom=0;right=0;align=left;spacingLeft=6;overflow=hidden;" vertex="1" parent="cOOYBnyWmmE-Bh1Ltxbe-141">
          <mxGeometry x="30" width="150" height="30" as="geometry" />
        </mxCell>
        <mxCell id="cOOYBnyWmmE-Bh1Ltxbe-152" style="edgeStyle=orthogonalEdgeStyle;rounded=0;orthogonalLoop=1;jettySize=auto;html=1;exitX=0;exitY=0.5;exitDx=0;exitDy=0;startArrow=ERoneToMany;startFill=0;endArrow=ERone;endFill=0;" edge="1" parent="1" source="cOOYBnyWmmE-Bh1Ltxbe-80" target="cOOYBnyWmmE-Bh1Ltxbe-90">
          <mxGeometry relative="1" as="geometry">
            <mxPoint x="572.5" y="495" as="sourcePoint" />
          </mxGeometry>
        </mxCell>
        <mxCell id="cOOYBnyWmmE-Bh1Ltxbe-153" style="edgeStyle=orthogonalEdgeStyle;rounded=0;orthogonalLoop=1;jettySize=auto;html=1;exitX=0;exitY=0.5;exitDx=0;exitDy=0;startArrow=ERoneToMany;startFill=0;endArrow=ERone;endFill=0;" edge="1" parent="1" source="cOOYBnyWmmE-Bh1Ltxbe-99" target="cOOYBnyWmmE-Bh1Ltxbe-132">
          <mxGeometry relative="1" as="geometry" />
        </mxCell>
      </root>
    </mxGraphModel>
  </diagram>
</mxfile>
